<svg width="33" height="33" fill="none" xmlns="http://www.w3.org/2000/svg">
  <g clip-path="url(#clip0)">
    <path d="M32.68 10.78l-.71-.72a1.08 1.08 0 00-1.52 1.52l.71.72c.22.21.49.31.76.31.28 0 .55-.1.76-.31.42-.42.42-1.1 0-1.52zM28.38 10.06a1.08 1.08 0 00-1.52 0l-.72.72a1.08 1.08 0 001.52 1.52l.72-.72c.42-.42.42-1.1 0-1.52zM32.68 5.76a1.06 1.06 0 00-.76-.32c-.27 0-.54.1-.76.32l-.71.71A1.08 1.08 0 0031.97 8l.71-.71c.42-.42.42-1.1 0-1.52z" fill="#FFE300"/>
    <path d="M28.47 6.74L26.94 5.2a3.23 3.23 0 00-4.56 0l-.51.51-1.52-1.52a1.08 1.08 0 00-1.52 0l-2.88 2.88c-1.4-.6-2.91-.9-4.48-.9a11.5 11.5 0 000 22.95c3.06 0 5.95-1.2 8.11-3.36a11.42 11.42 0 003.37-8.13c0-1.57-.31-3.09-.9-4.49l2.87-2.87c.42-.42.42-1.1 0-1.52L23.4 7.24l.5-.5c.42-.42 1.1-.42 1.53 0l1.52 1.52c.21.2.48.31.76.31s.55-.1.76-.31c.42-.42.42-1.1 0-1.52zM16.55 22.7a7.13 7.13 0 01-10.14 0 1.08 1.08 0 011.52-1.52 5 5 0 007.1 0 1.08 1.08 0 011.52 1.52z" fill="#2F0F0F"/>
  </g>
  <defs>
    <clipPath id="clip0">
      <path fill="#fff" d="M0 0h33v33H0z"/>
    </clipPath>
  </defs>
</svg>
