<svg
    width="15"
    height="15"
    fill="none"
    xmlns="http://www.w3.org/2000/svg"
  >
    <g clip-path="url(#clip0)">
      <path
        d="M14.07 4.83l-.3-.3a.45.45 0 00-.65.64l.3.3c.1.09.2.13.33.13.11 0 .23-.04.32-.13a.45.45 0 000-.64zM12.25 4.52a.45.45 0 00-.64 0l-.3.3a.45.45 0 00.64.65l.3-.3a.45.45 0 000-.65zM14.07 2.7a.45.45 0 00-.32-.13.45.45 0 00-.32.14l-.3.3a.45.45 0 00.63.64l.3-.3a.45.45 0 000-.64z"
        fill="#FFE300"
      />
      <path
        d="M12.29 3.12l-.65-.64a1.36 1.36 0 00-1.92 0l-.22.21-.64-.64a.45.45 0 00-.64 0L7.01 3.27A4.83 4.83 0 001.69 4.3a4.85 4.85 0 107.89 1.53l1.21-1.21a.45.45 0 000-.65l-.64-.63.21-.22a.45.45 0 01.65 0l.64.64c.09.1.2.14.32.14.11 0 .23-.05.32-.14a.45.45 0 000-.64zM7.26 9.86a3 3 0 01-4.28 0 .45.45 0 01.64-.64 2.1 2.1 0 003 0 .45.45 0 01.64.64z"
        fill="#F42402"
      />
    </g>
    <defs>
      <clipPath id="clip0">
        <path
          fill="#fff"
          transform="translate(.28 .28)"
          d="M0 0h13.92v13.92H0z"
        />
      </clipPath>
    </defs>
  </svg>